<mxfile host="app.diagrams.net" agent="Mozilla/5.0 (Windows NT 10.0; Win64; x64) AppleWebKit/537.36 (KHTML, like Gecko) Chrome/132.0.0.0 YaBrowser/25.2.0.0 Safari/537.36" version="26.0.16">
  <diagram name="Страница — 1" id="qgaS5oBrtJzDqpeb_7Mz">
    <mxGraphModel dx="1434" dy="767" grid="0" gridSize="10" guides="1" tooltips="1" connect="1" arrows="1" fold="1" page="1" pageScale="1" pageWidth="1169" pageHeight="827" math="0" shadow="0">
      <root>
        <mxCell id="0" />
        <mxCell id="1" parent="0" />
        <mxCell id="7Z6YjIYexH3Ecchx5CGs-3" value="" style="rounded=0;whiteSpace=wrap;html=1;" vertex="1" parent="1">
          <mxGeometry x="210" y="170" width="330" height="290" as="geometry" />
        </mxCell>
        <mxCell id="7Z6YjIYexH3Ecchx5CGs-4" value="&lt;b&gt;&lt;font style=&quot;font-size: 16px;&quot;&gt;Клиентская часть&lt;/font&gt;&lt;/b&gt;" style="text;html=1;align=center;verticalAlign=middle;whiteSpace=wrap;rounded=0;" vertex="1" parent="1">
          <mxGeometry x="255" y="190" width="240" height="30" as="geometry" />
        </mxCell>
        <mxCell id="7Z6YjIYexH3Ecchx5CGs-21" style="edgeStyle=orthogonalEdgeStyle;rounded=0;orthogonalLoop=1;jettySize=auto;html=1;exitX=0.5;exitY=1;exitDx=0;exitDy=0;entryX=0.5;entryY=0;entryDx=0;entryDy=0;endArrow=none;startFill=0;" edge="1" parent="1" source="7Z6YjIYexH3Ecchx5CGs-7" target="7Z6YjIYexH3Ecchx5CGs-20">
          <mxGeometry relative="1" as="geometry" />
        </mxCell>
        <mxCell id="7Z6YjIYexH3Ecchx5CGs-7" value="Подсистема ввода характеристик автомобиля" style="rounded=0;whiteSpace=wrap;html=1;" vertex="1" parent="1">
          <mxGeometry x="260" y="240" width="240" height="40" as="geometry" />
        </mxCell>
        <mxCell id="7Z6YjIYexH3Ecchx5CGs-9" value="Подсистема просмотра результата прогнозирования" style="rounded=0;whiteSpace=wrap;html=1;" vertex="1" parent="1">
          <mxGeometry x="260" y="360" width="240" height="40" as="geometry" />
        </mxCell>
        <mxCell id="7Z6YjIYexH3Ecchx5CGs-10" style="edgeStyle=orthogonalEdgeStyle;rounded=0;orthogonalLoop=1;jettySize=auto;html=1;exitX=0.5;exitY=1;exitDx=0;exitDy=0;" edge="1" parent="1">
          <mxGeometry relative="1" as="geometry">
            <mxPoint x="190" y="885" as="sourcePoint" />
            <mxPoint x="190" y="885" as="targetPoint" />
          </mxGeometry>
        </mxCell>
        <mxCell id="7Z6YjIYexH3Ecchx5CGs-11" value="" style="rounded=0;whiteSpace=wrap;html=1;" vertex="1" parent="1">
          <mxGeometry x="670" y="170" width="340" height="290" as="geometry" />
        </mxCell>
        <mxCell id="7Z6YjIYexH3Ecchx5CGs-12" value="&lt;b&gt;&lt;font style=&quot;font-size: 16px;&quot;&gt;Серверная часть&lt;/font&gt;&lt;/b&gt;" style="text;html=1;align=center;verticalAlign=middle;whiteSpace=wrap;rounded=0;" vertex="1" parent="1">
          <mxGeometry x="720" y="190" width="240" height="30" as="geometry" />
        </mxCell>
        <mxCell id="7Z6YjIYexH3Ecchx5CGs-23" style="edgeStyle=orthogonalEdgeStyle;rounded=0;orthogonalLoop=1;jettySize=auto;html=1;exitX=0.5;exitY=1;exitDx=0;exitDy=0;entryX=0.5;entryY=0;entryDx=0;entryDy=0;endArrow=none;startFill=0;" edge="1" parent="1" source="7Z6YjIYexH3Ecchx5CGs-15" target="7Z6YjIYexH3Ecchx5CGs-16">
          <mxGeometry relative="1" as="geometry" />
        </mxCell>
        <mxCell id="7Z6YjIYexH3Ecchx5CGs-15" value="Подсистема обработки данных" style="rounded=0;whiteSpace=wrap;html=1;" vertex="1" parent="1">
          <mxGeometry x="720" y="240" width="240" height="40" as="geometry" />
        </mxCell>
        <mxCell id="7Z6YjIYexH3Ecchx5CGs-24" style="edgeStyle=orthogonalEdgeStyle;rounded=0;orthogonalLoop=1;jettySize=auto;html=1;exitX=0.5;exitY=1;exitDx=0;exitDy=0;entryX=0.5;entryY=0;entryDx=0;entryDy=0;endArrow=none;startFill=0;" edge="1" parent="1" source="7Z6YjIYexH3Ecchx5CGs-16" target="7Z6YjIYexH3Ecchx5CGs-22">
          <mxGeometry relative="1" as="geometry" />
        </mxCell>
        <mxCell id="7Z6YjIYexH3Ecchx5CGs-16" value="Подсистема прогнозирования" style="rounded=0;whiteSpace=wrap;html=1;" vertex="1" parent="1">
          <mxGeometry x="720" y="300" width="240" height="40" as="geometry" />
        </mxCell>
        <mxCell id="7Z6YjIYexH3Ecchx5CGs-17" style="edgeStyle=orthogonalEdgeStyle;rounded=0;orthogonalLoop=1;jettySize=auto;html=1;exitX=0.5;exitY=1;exitDx=0;exitDy=0;" edge="1" parent="1">
          <mxGeometry relative="1" as="geometry">
            <mxPoint x="520" y="945" as="sourcePoint" />
            <mxPoint x="520" y="945" as="targetPoint" />
          </mxGeometry>
        </mxCell>
        <mxCell id="7Z6YjIYexH3Ecchx5CGs-18" value="" style="shape=flexArrow;endArrow=classic;startArrow=classic;html=1;rounded=0;" edge="1" parent="1">
          <mxGeometry width="100" height="100" relative="1" as="geometry">
            <mxPoint x="550" y="313" as="sourcePoint" />
            <mxPoint x="660" y="312" as="targetPoint" />
            <Array as="points">
              <mxPoint x="610" y="312" />
            </Array>
          </mxGeometry>
        </mxCell>
        <mxCell id="7Z6YjIYexH3Ecchx5CGs-19" value="&lt;div&gt;&lt;span style=&quot;background-color: transparent; color: light-dark(rgb(0, 0, 0), rgb(255, 255, 255));&quot;&gt;HTTP&lt;/span&gt;&lt;/div&gt;" style="text;html=1;align=center;verticalAlign=middle;whiteSpace=wrap;rounded=0;" vertex="1" parent="1">
          <mxGeometry x="580" y="280" width="60" height="30" as="geometry" />
        </mxCell>
        <mxCell id="7Z6YjIYexH3Ecchx5CGs-20" value="Подсистема валидации" style="rounded=0;whiteSpace=wrap;html=1;" vertex="1" parent="1">
          <mxGeometry x="260" y="300" width="240" height="40" as="geometry" />
        </mxCell>
        <mxCell id="7Z6YjIYexH3Ecchx5CGs-22" value="Подсистема взаимодействия с клиентом" style="rounded=0;whiteSpace=wrap;html=1;" vertex="1" parent="1">
          <mxGeometry x="720" y="360" width="240" height="40" as="geometry" />
        </mxCell>
      </root>
    </mxGraphModel>
  </diagram>
</mxfile>
